<svg width="377" height="279" viewBox="0 0 377 279" fill="none" xmlns="http://www.w3.org/2000/svg">
<g filter="url(#filter0_bd_36_951)">
<rect x="23" y="22" width="330.805" height="233" rx="18" fill="url(#paint0_linear_36_951)"/>
<path d="M56.9556 60.3359H58.8159L61.5552 68.1655L64.2944 60.3359H66.1548L62.3022 71H60.8081L56.9556 60.3359ZM55.9521 60.3359H57.8052L58.1421 67.9678V71H55.9521V60.3359ZM65.3052 60.3359H67.1655V71H64.9683V67.9678L65.3052 60.3359ZM74.0623 69.2129V65.6826C74.0623 65.4287 74.0208 65.2114 73.9378 65.0308C73.8548 64.8452 73.7254 64.7012 73.5496 64.5986C73.3787 64.4961 73.1565 64.4448 72.8831 64.4448C72.6487 64.4448 72.4461 64.4863 72.2752 64.5693C72.1043 64.6475 71.9725 64.7622 71.8797 64.9136C71.7869 65.0601 71.7405 65.2334 71.7405 65.4336H69.6312C69.6312 65.0967 69.7093 64.7769 69.8655 64.4741C70.0218 64.1714 70.2488 63.9053 70.5467 63.6758C70.8445 63.4414 71.1985 63.2583 71.6087 63.1265C72.0237 62.9946 72.4876 62.9287 73.0003 62.9287C73.6155 62.9287 74.1624 63.0312 74.6409 63.2363C75.1194 63.4414 75.4954 63.749 75.7688 64.1592C76.0472 64.5693 76.1863 65.082 76.1863 65.6973V69.0884C76.1863 69.5229 76.2132 69.8794 76.2669 70.1577C76.3206 70.4312 76.3987 70.6704 76.5013 70.8755V71H74.3699C74.2674 70.7852 74.1893 70.5166 74.1355 70.1943C74.0867 69.8672 74.0623 69.54 74.0623 69.2129ZM74.3406 66.1733L74.3553 67.3672H73.1761C72.8978 67.3672 72.6561 67.3989 72.451 67.4624C72.2459 67.5259 72.0774 67.6162 71.9456 67.7334C71.8138 67.8457 71.7161 67.9775 71.6526 68.1289C71.594 68.2803 71.5647 68.4463 71.5647 68.627C71.5647 68.8076 71.6062 68.9712 71.6893 69.1177C71.7723 69.2593 71.8919 69.3716 72.0481 69.4546C72.2044 69.5327 72.3875 69.5718 72.5975 69.5718C72.9148 69.5718 73.1907 69.5083 73.4251 69.3813C73.6595 69.2544 73.8401 69.0981 73.9671 68.9126C74.0989 68.7271 74.1673 68.5513 74.1722 68.3853L74.7288 69.2788C74.6507 69.479 74.5433 69.6865 74.4065 69.9014C74.2747 70.1162 74.1062 70.3188 73.9012 70.5093C73.6961 70.6948 73.4495 70.8486 73.1614 70.9707C72.8733 71.0879 72.5315 71.1465 72.136 71.1465C71.6331 71.1465 71.1766 71.0464 70.7664 70.8462C70.3611 70.6411 70.0389 70.3604 69.7996 70.0039C69.5652 69.6426 69.448 69.2324 69.448 68.7734C69.448 68.3584 69.5262 67.9897 69.6824 67.6675C69.8387 67.3452 70.0682 67.0742 70.3709 66.8545C70.6785 66.6299 71.0618 66.4614 71.5208 66.3491C71.9798 66.2319 72.512 66.1733 73.1175 66.1733H74.3406ZM82.922 68.8101C82.922 68.6587 82.878 68.522 82.7901 68.3999C82.7022 68.2778 82.5387 68.1655 82.2994 68.063C82.065 67.9556 81.7257 67.8579 81.2813 67.77C80.881 67.6821 80.5074 67.5723 80.1607 67.4404C79.8189 67.3037 79.5211 67.1401 79.2672 66.9497C79.0182 66.7593 78.8229 66.5347 78.6812 66.2759C78.5396 66.0122 78.4688 65.7119 78.4688 65.375C78.4688 65.043 78.5396 64.7305 78.6812 64.4375C78.8277 64.1445 79.0353 63.8857 79.3038 63.6611C79.5772 63.4316 79.9093 63.2534 80.2999 63.1265C80.6954 62.9946 81.1397 62.9287 81.6329 62.9287C82.3214 62.9287 82.9122 63.0386 83.4054 63.2583C83.9034 63.478 84.2843 63.7808 84.5479 64.1665C84.8165 64.5474 84.9508 64.9819 84.9508 65.4702H82.8414C82.8414 65.2651 82.7975 65.082 82.7096 64.9209C82.6266 64.7549 82.4947 64.6255 82.3141 64.5327C82.1383 64.4351 81.9088 64.3862 81.6256 64.3862C81.3912 64.3862 81.1886 64.4277 81.0177 64.5107C80.8468 64.5889 80.7149 64.6963 80.6222 64.833C80.5343 64.9648 80.4903 65.1113 80.4903 65.2725C80.4903 65.3945 80.5147 65.5044 80.5636 65.6021C80.6173 65.6948 80.7027 65.7803 80.8199 65.8584C80.9371 65.9365 81.0885 66.0098 81.274 66.0781C81.4645 66.1416 81.6988 66.2002 81.9771 66.2539C82.5484 66.3711 83.0587 66.5249 83.5079 66.7153C83.9571 66.9009 84.3136 67.1548 84.5772 67.4771C84.8409 67.7944 84.9728 68.2119 84.9728 68.7295C84.9728 69.0811 84.8946 69.4033 84.7384 69.6963C84.5821 69.9893 84.3575 70.2456 84.0646 70.4653C83.7716 70.6802 83.42 70.8486 83.0099 70.9707C82.6046 71.0879 82.148 71.1465 81.6402 71.1465C80.9029 71.1465 80.2779 71.0146 79.7652 70.751C79.2574 70.4873 78.8717 70.1528 78.608 69.7476C78.3492 69.3374 78.2198 68.9175 78.2198 68.4878H80.2193C80.2291 68.7759 80.3023 69.0078 80.4391 69.1836C80.5807 69.3594 80.7589 69.4863 80.9737 69.5645C81.1935 69.6426 81.4303 69.6816 81.6842 69.6816C81.9576 69.6816 82.1847 69.645 82.3653 69.5718C82.546 69.4937 82.6827 69.3911 82.7755 69.2642C82.8731 69.1323 82.922 68.981 82.922 68.8101ZM91.0492 63.0752V64.5693H86.435V63.0752H91.0492ZM87.5775 61.1196H89.6869V68.6123C89.6869 68.8418 89.7162 69.0176 89.7748 69.1396C89.8383 69.2617 89.9311 69.3472 90.0531 69.396C90.1752 69.4399 90.329 69.4619 90.5146 69.4619C90.6464 69.4619 90.7636 69.457 90.8661 69.4473C90.9735 69.4326 91.0639 69.418 91.1371 69.4033L91.1444 70.9561C90.9638 71.0146 90.7685 71.061 90.5585 71.0952C90.3485 71.1294 90.1166 71.1465 89.8627 71.1465C89.3988 71.1465 88.9936 71.0708 88.6469 70.9194C88.3051 70.7632 88.0414 70.5142 87.8559 70.1724C87.6703 69.8306 87.5775 69.3813 87.5775 68.8247V61.1196ZM96.7229 71.1465C96.1076 71.1465 95.5559 71.0488 95.0676 70.8535C94.5793 70.6533 94.1643 70.3774 93.8225 70.0259C93.4855 69.6743 93.2268 69.2666 93.0461 68.8027C92.8654 68.334 92.7751 67.8359 92.7751 67.3086V67.0156C92.7751 66.415 92.8605 65.8657 93.0314 65.3677C93.2023 64.8696 93.4465 64.4375 93.7639 64.0713C94.0861 63.7051 94.4768 63.4243 94.9357 63.229C95.3947 63.0288 95.9123 62.9287 96.4885 62.9287C97.05 62.9287 97.548 63.0215 97.9826 63.207C98.4172 63.3926 98.781 63.6562 99.0739 63.998C99.3718 64.3398 99.5964 64.75 99.7478 65.2285C99.8991 65.7021 99.9748 66.2295 99.9748 66.8105V67.6895H93.676V66.2832H97.9021V66.1221C97.9021 65.8291 97.8483 65.5679 97.7409 65.3384C97.6384 65.104 97.4821 64.9185 97.2722 64.7817C97.0622 64.645 96.7937 64.5767 96.4665 64.5767C96.1882 64.5767 95.9489 64.6377 95.7487 64.7598C95.5485 64.8818 95.385 65.0527 95.258 65.2725C95.1359 65.4922 95.0432 65.751 94.9797 66.0488C94.9211 66.3418 94.8918 66.6641 94.8918 67.0156V67.3086C94.8918 67.626 94.9357 67.9189 95.0236 68.1875C95.1164 68.4561 95.2458 68.688 95.4118 68.8833C95.5827 69.0786 95.7878 69.23 96.0271 69.3374C96.2712 69.4448 96.5471 69.4985 96.8547 69.4985C97.2355 69.4985 97.5896 69.4253 97.9167 69.2788C98.2487 69.1274 98.5344 68.9004 98.7736 68.5977L99.799 69.7109C99.633 69.9502 99.406 70.1797 99.1179 70.3994C98.8347 70.6191 98.4929 70.7998 98.0925 70.9414C97.6921 71.0781 97.2355 71.1465 96.7229 71.1465ZM104.11 64.8037V71H102.001V63.0752H103.986L104.11 64.8037ZM106.498 63.0239L106.461 64.9795C106.359 64.9648 106.234 64.9526 106.088 64.9429C105.946 64.9282 105.817 64.9209 105.7 64.9209C105.402 64.9209 105.143 64.96 104.923 65.0381C104.708 65.1113 104.528 65.2212 104.381 65.3677C104.24 65.5142 104.132 65.6924 104.059 65.9023C103.991 66.1123 103.952 66.3516 103.942 66.6201L103.517 66.4883C103.517 65.9756 103.568 65.5044 103.671 65.0747C103.773 64.6401 103.922 64.2617 104.118 63.9395C104.318 63.6172 104.562 63.3682 104.85 63.1924C105.138 63.0166 105.468 62.9287 105.839 62.9287C105.956 62.9287 106.076 62.9385 106.198 62.958C106.32 62.9727 106.42 62.9946 106.498 63.0239ZM111.447 69.4985C111.705 69.4985 111.935 69.4497 112.135 69.3521C112.335 69.2495 112.492 69.1079 112.604 68.9272C112.721 68.7417 112.782 68.5244 112.787 68.2754H114.772C114.767 68.832 114.618 69.3276 114.325 69.7622C114.032 70.1919 113.639 70.5312 113.146 70.7803C112.653 71.0244 112.101 71.1465 111.491 71.1465C110.875 71.1465 110.338 71.0439 109.879 70.8389C109.425 70.6338 109.047 70.3506 108.744 69.9893C108.441 69.623 108.214 69.1982 108.063 68.7148C107.911 68.2266 107.836 67.7041 107.836 67.1475V66.9351C107.836 66.3735 107.911 65.8511 108.063 65.3677C108.214 64.8794 108.441 64.4546 108.744 64.0933C109.047 63.7271 109.425 63.4414 109.879 63.2363C110.333 63.0312 110.866 62.9287 111.476 62.9287C112.125 62.9287 112.694 63.0532 113.182 63.3022C113.676 63.5513 114.061 63.9077 114.34 64.3716C114.623 64.8306 114.767 65.375 114.772 66.0049H112.787C112.782 65.7412 112.726 65.502 112.618 65.2871C112.516 65.0723 112.365 64.9014 112.164 64.7744C111.969 64.6426 111.727 64.5767 111.439 64.5767C111.132 64.5767 110.88 64.6426 110.685 64.7744C110.49 64.9014 110.338 65.0771 110.231 65.3018C110.123 65.5215 110.048 65.7729 110.004 66.0562C109.965 66.3345 109.945 66.6274 109.945 66.9351V67.1475C109.945 67.4551 109.965 67.7505 110.004 68.0337C110.043 68.3169 110.116 68.5684 110.223 68.7881C110.336 69.0078 110.49 69.1812 110.685 69.3081C110.88 69.4351 111.134 69.4985 111.447 69.4985ZM121.097 69.2129V65.6826C121.097 65.4287 121.056 65.2114 120.973 65.0308C120.89 64.8452 120.76 64.7012 120.585 64.5986C120.414 64.4961 120.192 64.4448 119.918 64.4448C119.684 64.4448 119.481 64.4863 119.31 64.5693C119.139 64.6475 119.007 64.7622 118.915 64.9136C118.822 65.0601 118.775 65.2334 118.775 65.4336H116.666C116.666 65.0967 116.744 64.7769 116.9 64.4741C117.057 64.1714 117.284 63.9053 117.582 63.6758C117.879 63.4414 118.233 63.2583 118.644 63.1265C119.059 62.9946 119.523 62.9287 120.035 62.9287C120.65 62.9287 121.197 63.0312 121.676 63.2363C122.154 63.4414 122.53 63.749 122.804 64.1592C123.082 64.5693 123.221 65.082 123.221 65.6973V69.0884C123.221 69.5229 123.248 69.8794 123.302 70.1577C123.356 70.4312 123.434 70.6704 123.536 70.8755V71H121.405C121.302 70.7852 121.224 70.5166 121.171 70.1943C121.122 69.8672 121.097 69.54 121.097 69.2129ZM121.376 66.1733L121.39 67.3672H120.211C119.933 67.3672 119.691 67.3989 119.486 67.4624C119.281 67.5259 119.112 67.6162 118.981 67.7334C118.849 67.8457 118.751 67.9775 118.688 68.1289C118.629 68.2803 118.6 68.4463 118.6 68.627C118.6 68.8076 118.641 68.9712 118.724 69.1177C118.807 69.2593 118.927 69.3716 119.083 69.4546C119.239 69.5327 119.422 69.5718 119.632 69.5718C119.95 69.5718 120.226 69.5083 120.46 69.3813C120.694 69.2544 120.875 69.0981 121.002 68.9126C121.134 68.7271 121.202 68.5513 121.207 68.3853L121.764 69.2788C121.686 69.479 121.578 69.6865 121.442 69.9014C121.31 70.1162 121.141 70.3188 120.936 70.5093C120.731 70.6948 120.484 70.8486 120.196 70.9707C119.908 71.0879 119.567 71.1465 119.171 71.1465C118.668 71.1465 118.212 71.0464 117.801 70.8462C117.396 70.6411 117.074 70.3604 116.835 70.0039C116.6 69.6426 116.483 69.2324 116.483 68.7734C116.483 68.3584 116.561 67.9897 116.717 67.6675C116.874 67.3452 117.103 67.0742 117.406 66.8545C117.713 66.6299 118.097 66.4614 118.556 66.3491C119.015 66.2319 119.547 66.1733 120.152 66.1733H121.376ZM127.782 64.8037V71H125.672V63.0752H127.657L127.782 64.8037ZM130.169 63.0239L130.133 64.9795C130.03 64.9648 129.906 64.9526 129.759 64.9429C129.618 64.9282 129.488 64.9209 129.371 64.9209C129.073 64.9209 128.814 64.96 128.595 65.0381C128.38 65.1113 128.199 65.2212 128.053 65.3677C127.911 65.5142 127.804 65.6924 127.73 65.9023C127.662 66.1123 127.623 66.3516 127.613 66.6201L127.188 66.4883C127.188 65.9756 127.24 65.5044 127.342 65.0747C127.445 64.6401 127.594 64.2617 127.789 63.9395C127.989 63.6172 128.233 63.3682 128.521 63.1924C128.809 63.0166 129.139 62.9287 129.51 62.9287C129.627 62.9287 129.747 62.9385 129.869 62.958C129.991 62.9727 130.091 62.9946 130.169 63.0239ZM136.524 69.2715V59.75H138.648V71H136.737L136.524 69.2715ZM131.514 67.1328V66.979C131.514 66.3735 131.583 65.8242 131.719 65.3311C131.856 64.833 132.056 64.4058 132.32 64.0493C132.584 63.6929 132.908 63.417 133.294 63.2217C133.68 63.0264 134.119 62.9287 134.613 62.9287C135.076 62.9287 135.482 63.0264 135.828 63.2217C136.18 63.417 136.478 63.6953 136.722 64.0566C136.971 64.4131 137.171 64.8354 137.322 65.3237C137.474 65.8071 137.584 66.3369 137.652 66.9131V67.25C137.584 67.8018 137.474 68.3145 137.322 68.7881C137.171 69.2617 136.971 69.6768 136.722 70.0332C136.478 70.3848 136.18 70.6582 135.828 70.8535C135.477 71.0488 135.067 71.1465 134.598 71.1465C134.105 71.1465 133.665 71.0464 133.279 70.8462C132.899 70.646 132.576 70.3652 132.313 70.0039C132.054 69.6426 131.856 69.2178 131.719 68.7295C131.583 68.2412 131.514 67.709 131.514 67.1328ZM133.624 66.979V67.1328C133.624 67.46 133.648 67.7651 133.697 68.0483C133.751 68.3315 133.836 68.583 133.953 68.8027C134.075 69.0176 134.232 69.186 134.422 69.3081C134.617 69.4253 134.854 69.4839 135.133 69.4839C135.494 69.4839 135.792 69.4033 136.026 69.2422C136.26 69.0762 136.439 68.8491 136.561 68.561C136.688 68.2729 136.761 67.9409 136.78 67.5649V66.6055C136.766 66.2979 136.722 66.022 136.649 65.7778C136.58 65.5288 136.478 65.3164 136.341 65.1406C136.209 64.9648 136.043 64.8281 135.843 64.7305C135.648 64.6328 135.416 64.584 135.147 64.584C134.874 64.584 134.639 64.6475 134.444 64.7744C134.249 64.8965 134.09 65.0649 133.968 65.2798C133.851 65.4946 133.763 65.7485 133.704 66.0415C133.651 66.3296 133.624 66.6421 133.624 66.979Z" fill="white"/>
<path d="M62.6758 215.609H64.082C64.0088 216.283 63.8159 216.886 63.5034 217.418C63.1909 217.95 62.749 218.373 62.1777 218.685C61.6064 218.993 60.8936 219.146 60.0391 219.146C59.4141 219.146 58.8452 219.029 58.3325 218.795C57.8247 218.561 57.3877 218.229 57.0215 217.799C56.6553 217.364 56.3721 216.844 56.1719 216.239C55.9766 215.628 55.8789 214.95 55.8789 214.203V213.141C55.8789 212.394 55.9766 211.717 56.1719 211.112C56.3721 210.501 56.6577 209.979 57.0288 209.544C57.4048 209.11 57.8564 208.775 58.3838 208.541C58.9111 208.307 59.5044 208.189 60.1636 208.189C60.9692 208.189 61.6504 208.341 62.207 208.644C62.7637 208.946 63.1958 209.366 63.5034 209.903C63.8159 210.436 64.0088 211.053 64.082 211.756H62.6758C62.6074 211.258 62.4805 210.831 62.2949 210.475C62.1094 210.113 61.8457 209.835 61.5039 209.64C61.1621 209.444 60.7153 209.347 60.1636 209.347C59.6899 209.347 59.2725 209.437 58.9111 209.618C58.5547 209.798 58.2544 210.055 58.0103 210.387C57.771 210.719 57.5903 211.117 57.4683 211.581C57.3462 212.044 57.2852 212.56 57.2852 213.126V214.203C57.2852 214.725 57.3389 215.216 57.4463 215.675C57.5586 216.134 57.7271 216.537 57.9517 216.883C58.1763 217.23 58.4619 217.503 58.8086 217.704C59.1553 217.899 59.5654 217.997 60.0391 217.997C60.6396 217.997 61.1182 217.901 61.4746 217.711C61.8311 217.521 62.0996 217.247 62.2803 216.891C62.4658 216.534 62.5977 216.107 62.6758 215.609ZM71.3011 217.645V213.565C71.3011 213.253 71.2376 212.982 71.1106 212.752C70.9886 212.518 70.803 212.337 70.554 212.21C70.305 212.083 69.9974 212.02 69.6312 212.02C69.2894 212.02 68.9891 212.079 68.7303 212.196C68.4764 212.313 68.2762 212.467 68.1297 212.657C67.9881 212.848 67.9173 213.053 67.9173 213.272H66.5623C66.5623 212.989 66.6355 212.708 66.782 212.43C66.9285 212.152 67.1385 211.9 67.4119 211.676C67.6902 211.446 68.0223 211.266 68.408 211.134C68.7986 210.997 69.2332 210.929 69.7117 210.929C70.2879 210.929 70.7957 211.026 71.2352 211.222C71.6795 211.417 72.0262 211.712 72.2752 212.108C72.5291 212.499 72.6561 212.989 72.6561 213.58V217.271C72.6561 217.535 72.678 217.816 72.722 218.114C72.7708 218.412 72.8416 218.668 72.9344 218.883V219H71.5208C71.4524 218.844 71.3987 218.636 71.3597 218.377C71.3206 218.114 71.3011 217.87 71.3011 217.645ZM71.5354 214.195L71.5501 215.147H70.1805C69.7947 215.147 69.4505 215.179 69.1478 215.243C68.845 215.301 68.5911 215.392 68.386 215.514C68.181 215.636 68.0247 215.79 67.9173 215.975C67.8099 216.156 67.7562 216.368 67.7562 216.612C67.7562 216.861 67.8123 217.088 67.9246 217.293C68.0369 217.499 68.2054 217.662 68.43 217.784C68.6595 217.901 68.9402 217.96 69.2723 217.96C69.6873 217.96 70.0535 217.872 70.3709 217.696C70.6883 217.521 70.9397 217.306 71.1253 217.052C71.3157 216.798 71.4183 216.551 71.4329 216.312L72.0115 216.964C71.9773 217.169 71.8846 217.396 71.7332 217.645C71.5818 217.894 71.3792 218.133 71.1253 218.363C70.8763 218.587 70.5784 218.775 70.2317 218.927C69.8899 219.073 69.5042 219.146 69.0745 219.146C68.5374 219.146 68.0662 219.042 67.6609 218.832C67.2605 218.622 66.948 218.341 66.7234 217.989C66.5037 217.633 66.3938 217.235 66.3938 216.795C66.3938 216.371 66.4769 215.997 66.6429 215.675C66.8089 215.348 67.0481 215.077 67.3606 214.862C67.6731 214.642 68.0491 214.476 68.4886 214.364C68.928 214.251 69.4187 214.195 69.9607 214.195H71.5354ZM76.9601 212.65V219H75.5978V211.075H76.8868L76.9601 212.65ZM76.6817 214.737L76.0519 214.715C76.0567 214.173 76.1275 213.673 76.2643 213.214C76.401 212.75 76.6036 212.347 76.8722 212.005C77.1407 211.664 77.4752 211.4 77.8756 211.214C78.276 211.024 78.7398 210.929 79.2672 210.929C79.6383 210.929 79.9801 210.982 80.2926 211.09C80.6051 211.192 80.8761 211.356 81.1056 211.581C81.3351 211.805 81.5133 212.093 81.6402 212.445C81.7672 212.796 81.8307 213.221 81.8307 213.719V219H80.4757V213.785C80.4757 213.37 80.4049 213.038 80.2633 212.789C80.1266 212.54 79.9312 212.359 79.6773 212.247C79.4234 212.13 79.1256 212.071 78.7838 212.071C78.3834 212.071 78.0489 212.142 77.7804 212.284C77.5118 212.425 77.297 212.621 77.1358 212.87C76.9747 213.119 76.8575 213.404 76.7843 213.727C76.7159 214.044 76.6817 214.381 76.6817 214.737ZM81.816 213.99L80.9078 214.269C80.9127 213.834 80.9835 213.417 81.1202 213.016C81.2618 212.616 81.4645 212.259 81.7281 211.947C81.9967 211.634 82.3263 211.388 82.7169 211.207C83.1075 211.021 83.5543 210.929 84.0572 210.929C84.482 210.929 84.858 210.985 85.1852 211.097C85.5172 211.209 85.7955 211.383 86.0201 211.617C86.2496 211.847 86.4229 212.142 86.5401 212.503C86.6573 212.865 86.7159 213.294 86.7159 213.792V219H85.3536V213.778C85.3536 213.333 85.2828 212.989 85.1412 212.745C85.0045 212.496 84.8092 212.323 84.5553 212.225C84.3062 212.123 84.0084 212.071 83.6617 212.071C83.3639 212.071 83.1002 212.123 82.8707 212.225C82.6412 212.328 82.4483 212.469 82.2921 212.65C82.1358 212.826 82.0162 213.028 81.9332 213.258C81.8551 213.487 81.816 213.731 81.816 213.99ZM92.8803 219.146C92.3285 219.146 91.828 219.054 91.3788 218.868C90.9345 218.678 90.5512 218.412 90.2289 218.07C89.9115 217.728 89.6674 217.323 89.4965 216.854C89.3256 216.385 89.2401 215.873 89.2401 215.316V215.008C89.2401 214.364 89.3354 213.79 89.5258 213.287C89.7162 212.779 89.975 212.35 90.3021 211.998C90.6293 211.646 91.0004 211.38 91.4154 211.2C91.8305 211.019 92.2602 210.929 92.7045 210.929C93.2709 210.929 93.7592 211.026 94.1693 211.222C94.5844 211.417 94.9237 211.69 95.1874 212.042C95.4511 212.389 95.6464 212.799 95.7733 213.272C95.9003 213.741 95.9638 214.254 95.9638 214.811V215.418H90.0458V214.312H94.6088V214.21C94.5893 213.858 94.516 213.517 94.3891 213.185C94.267 212.853 94.0717 212.579 93.8031 212.364C93.5346 212.149 93.1684 212.042 92.7045 212.042C92.3969 212.042 92.1137 212.108 91.8549 212.24C91.5961 212.367 91.3739 212.557 91.1884 212.811C91.0028 213.065 90.8588 213.375 90.7562 213.741C90.6537 214.107 90.6024 214.53 90.6024 215.008V215.316C90.6024 215.692 90.6537 216.046 90.7562 216.378C90.8637 216.705 91.0175 216.993 91.2177 217.242C91.4228 217.491 91.6693 217.687 91.9574 217.828C92.2504 217.97 92.5824 218.041 92.9535 218.041C93.432 218.041 93.8373 217.943 94.1693 217.748C94.5014 217.552 94.7919 217.291 95.0409 216.964L95.8612 217.616C95.6903 217.875 95.473 218.121 95.2094 218.355C94.9457 218.59 94.621 218.78 94.2353 218.927C93.8544 219.073 93.4027 219.146 92.8803 219.146ZM99.7258 212.32V219H98.3708V211.075H99.6892L99.7258 212.32ZM102.201 211.031L102.194 212.291C102.082 212.267 101.974 212.252 101.872 212.247C101.774 212.237 101.662 212.232 101.535 212.232C101.222 212.232 100.946 212.281 100.707 212.379C100.468 212.477 100.265 212.613 100.099 212.789C99.9333 212.965 99.8015 213.175 99.7038 213.419C99.611 213.658 99.55 213.922 99.5207 214.21L99.1398 214.43C99.1398 213.951 99.1862 213.502 99.279 213.082C99.3767 212.662 99.5256 212.291 99.7258 211.969C99.926 211.642 100.18 211.388 100.487 211.207C100.8 211.021 101.171 210.929 101.601 210.929C101.698 210.929 101.811 210.941 101.938 210.965C102.065 210.985 102.153 211.007 102.201 211.031ZM103.773 215.125V214.957C103.773 214.386 103.856 213.856 104.022 213.368C104.188 212.875 104.428 212.447 104.74 212.086C105.053 211.72 105.431 211.437 105.875 211.236C106.32 211.031 106.818 210.929 107.37 210.929C107.926 210.929 108.427 211.031 108.871 211.236C109.32 211.437 109.701 211.72 110.014 212.086C110.331 212.447 110.573 212.875 110.739 213.368C110.905 213.856 110.988 214.386 110.988 214.957V215.125C110.988 215.697 110.905 216.227 110.739 216.715C110.573 217.203 110.331 217.63 110.014 217.997C109.701 218.358 109.323 218.641 108.878 218.846C108.439 219.046 107.941 219.146 107.384 219.146C106.828 219.146 106.327 219.046 105.883 218.846C105.438 218.641 105.058 218.358 104.74 217.997C104.428 217.63 104.188 217.203 104.022 216.715C103.856 216.227 103.773 215.697 103.773 215.125ZM105.128 214.957V215.125C105.128 215.521 105.175 215.895 105.268 216.246C105.36 216.593 105.5 216.9 105.685 217.169C105.875 217.438 106.112 217.65 106.396 217.806C106.679 217.958 107.008 218.033 107.384 218.033C107.755 218.033 108.08 217.958 108.358 217.806C108.642 217.65 108.876 217.438 109.062 217.169C109.247 216.9 109.386 216.593 109.479 216.246C109.577 215.895 109.625 215.521 109.625 215.125V214.957C109.625 214.566 109.577 214.198 109.479 213.851C109.386 213.5 109.245 213.189 109.054 212.921C108.869 212.647 108.634 212.433 108.351 212.276C108.073 212.12 107.746 212.042 107.37 212.042C106.999 212.042 106.671 212.12 106.388 212.276C106.11 212.433 105.875 212.647 105.685 212.921C105.5 213.189 105.36 213.5 105.268 213.851C105.175 214.198 105.128 214.566 105.128 214.957ZM114.867 212.767V219H113.512V211.075H114.794L114.867 212.767ZM114.545 214.737L113.981 214.715C113.986 214.173 114.066 213.673 114.222 213.214C114.379 212.75 114.598 212.347 114.882 212.005C115.165 211.664 115.502 211.4 115.892 211.214C116.288 211.024 116.725 210.929 117.203 210.929C117.594 210.929 117.946 210.982 118.258 211.09C118.571 211.192 118.837 211.358 119.056 211.588C119.281 211.817 119.452 212.115 119.569 212.481C119.686 212.843 119.745 213.285 119.745 213.807V219H118.383V213.792C118.383 213.377 118.322 213.045 118.2 212.796C118.077 212.542 117.899 212.359 117.665 212.247C117.43 212.13 117.142 212.071 116.801 212.071C116.464 212.071 116.156 212.142 115.878 212.284C115.604 212.425 115.367 212.621 115.167 212.87C114.972 213.119 114.818 213.404 114.706 213.727C114.598 214.044 114.545 214.381 114.545 214.737ZM130.184 215.777L132.301 208.336H133.326L132.733 211.229L130.455 219H129.437L130.184 215.777ZM127.994 208.336L129.679 215.631L130.184 219H129.173L126.588 208.336H127.994ZM136.065 215.624L137.713 208.336H139.127L136.549 219H135.538L136.065 215.624ZM133.48 208.336L135.538 215.777L136.285 219H135.267L133.07 211.229L132.469 208.336H133.48ZM142.786 211.075V219H141.424V211.075H142.786ZM141.321 208.973C141.321 208.753 141.387 208.568 141.519 208.417C141.656 208.265 141.856 208.189 142.12 208.189C142.379 208.189 142.576 208.265 142.713 208.417C142.855 208.568 142.925 208.753 142.925 208.973C142.925 209.183 142.855 209.364 142.713 209.515C142.576 209.662 142.379 209.735 142.12 209.735C141.856 209.735 141.656 209.662 141.519 209.515C141.387 209.364 141.321 209.183 141.321 208.973ZM147.259 207.75V219H145.896V207.75H147.259ZM151.731 207.75V219H150.369V207.75H151.731ZM156.204 211.075V219H154.841V211.075H156.204ZM154.739 208.973C154.739 208.753 154.805 208.568 154.937 208.417C155.073 208.265 155.274 208.189 155.537 208.189C155.796 208.189 155.994 208.265 156.13 208.417C156.272 208.568 156.343 208.753 156.343 208.973C156.343 209.183 156.272 209.364 156.13 209.515C155.994 209.662 155.796 209.735 155.537 209.735C155.274 209.735 155.073 209.662 154.937 209.515C154.805 209.364 154.739 209.183 154.739 208.973ZM163.877 217.645V213.565C163.877 213.253 163.813 212.982 163.686 212.752C163.564 212.518 163.379 212.337 163.13 212.21C162.881 212.083 162.573 212.02 162.207 212.02C161.865 212.02 161.565 212.079 161.306 212.196C161.052 212.313 160.852 212.467 160.705 212.657C160.564 212.848 160.493 213.053 160.493 213.272H159.138C159.138 212.989 159.211 212.708 159.358 212.43C159.504 212.152 159.714 211.9 159.988 211.676C160.266 211.446 160.598 211.266 160.984 211.134C161.374 210.997 161.809 210.929 162.287 210.929C162.864 210.929 163.371 211.026 163.811 211.222C164.255 211.417 164.602 211.712 164.851 212.108C165.105 212.499 165.232 212.989 165.232 213.58V217.271C165.232 217.535 165.254 217.816 165.298 218.114C165.347 218.412 165.417 218.668 165.51 218.883V219H164.097C164.028 218.844 163.975 218.636 163.935 218.377C163.896 218.114 163.877 217.87 163.877 217.645ZM164.111 214.195L164.126 215.147H162.756C162.371 215.147 162.026 215.179 161.724 215.243C161.421 215.301 161.167 215.392 160.962 215.514C160.757 215.636 160.6 215.79 160.493 215.975C160.386 216.156 160.332 216.368 160.332 216.612C160.332 216.861 160.388 217.088 160.5 217.293C160.613 217.499 160.781 217.662 161.006 217.784C161.235 217.901 161.516 217.96 161.848 217.96C162.263 217.96 162.629 217.872 162.947 217.696C163.264 217.521 163.516 217.306 163.701 217.052C163.892 216.798 163.994 216.551 164.009 216.312L164.587 216.964C164.553 217.169 164.46 217.396 164.309 217.645C164.158 217.894 163.955 218.133 163.701 218.363C163.452 218.587 163.154 218.775 162.808 218.927C162.466 219.073 162.08 219.146 161.65 219.146C161.113 219.146 160.642 219.042 160.237 218.832C159.836 218.622 159.524 218.341 159.299 217.989C159.079 217.633 158.97 217.235 158.97 216.795C158.97 216.371 159.053 215.997 159.219 215.675C159.385 215.348 159.624 215.077 159.936 214.862C160.249 214.642 160.625 214.476 161.064 214.364C161.504 214.251 161.995 214.195 162.537 214.195H164.111ZM169.536 212.65V219H168.174V211.075H169.463L169.536 212.65ZM169.258 214.737L168.628 214.715C168.633 214.173 168.703 213.673 168.84 213.214C168.977 212.75 169.179 212.347 169.448 212.005C169.717 211.664 170.051 211.4 170.451 211.214C170.852 211.024 171.316 210.929 171.843 210.929C172.214 210.929 172.556 210.982 172.868 211.09C173.181 211.192 173.452 211.356 173.681 211.581C173.911 211.805 174.089 212.093 174.216 212.445C174.343 212.796 174.406 213.221 174.406 213.719V219H173.051V213.785C173.051 213.37 172.981 213.038 172.839 212.789C172.702 212.54 172.507 212.359 172.253 212.247C171.999 212.13 171.701 212.071 171.36 212.071C170.959 212.071 170.625 212.142 170.356 212.284C170.088 212.425 169.873 212.621 169.712 212.87C169.55 213.119 169.433 213.404 169.36 213.727C169.292 214.044 169.258 214.381 169.258 214.737ZM174.392 213.99L173.484 214.269C173.488 213.834 173.559 213.417 173.696 213.016C173.838 212.616 174.04 212.259 174.304 211.947C174.572 211.634 174.902 211.388 175.293 211.207C175.683 211.021 176.13 210.929 176.633 210.929C177.058 210.929 177.434 210.985 177.761 211.097C178.093 211.209 178.371 211.383 178.596 211.617C178.825 211.847 178.999 212.142 179.116 212.503C179.233 212.865 179.292 213.294 179.292 213.792V219H177.929V213.778C177.929 213.333 177.859 212.989 177.717 212.745C177.58 212.496 177.385 212.323 177.131 212.225C176.882 212.123 176.584 212.071 176.238 212.071C175.94 212.071 175.676 212.123 175.446 212.225C175.217 212.328 175.024 212.469 174.868 212.65C174.712 212.826 174.592 213.028 174.509 213.258C174.431 213.487 174.392 213.731 174.392 213.99ZM186.782 216.898C186.782 216.703 186.738 216.522 186.65 216.356C186.567 216.185 186.394 216.031 186.13 215.895C185.871 215.753 185.48 215.631 184.958 215.528C184.519 215.436 184.121 215.326 183.764 215.199C183.413 215.072 183.112 214.918 182.863 214.737C182.619 214.557 182.431 214.344 182.299 214.1C182.167 213.856 182.102 213.57 182.102 213.243C182.102 212.931 182.17 212.635 182.307 212.357C182.448 212.079 182.646 211.832 182.9 211.617C183.159 211.402 183.469 211.234 183.83 211.112C184.191 210.99 184.594 210.929 185.039 210.929C185.673 210.929 186.215 211.041 186.665 211.266C187.114 211.49 187.458 211.791 187.697 212.167C187.937 212.538 188.056 212.95 188.056 213.404H186.701C186.701 213.185 186.635 212.972 186.503 212.767C186.376 212.557 186.188 212.384 185.939 212.247C185.695 212.11 185.395 212.042 185.039 212.042C184.663 212.042 184.357 212.101 184.123 212.218C183.894 212.33 183.725 212.474 183.618 212.65C183.515 212.826 183.464 213.011 183.464 213.207C183.464 213.353 183.488 213.485 183.537 213.602C183.591 213.714 183.684 213.819 183.815 213.917C183.947 214.01 184.133 214.098 184.372 214.181C184.611 214.264 184.917 214.347 185.288 214.43C185.937 214.576 186.472 214.752 186.892 214.957C187.312 215.162 187.624 215.414 187.829 215.711C188.034 216.009 188.137 216.371 188.137 216.795C188.137 217.142 188.063 217.459 187.917 217.748C187.775 218.036 187.568 218.285 187.294 218.495C187.026 218.7 186.704 218.861 186.328 218.978C185.957 219.09 185.539 219.146 185.075 219.146C184.377 219.146 183.786 219.022 183.303 218.773C182.819 218.524 182.453 218.202 182.204 217.806C181.955 217.411 181.831 216.993 181.831 216.554H183.193C183.212 216.925 183.32 217.22 183.515 217.44C183.71 217.655 183.95 217.809 184.233 217.901C184.516 217.989 184.797 218.033 185.075 218.033C185.446 218.033 185.756 217.984 186.005 217.887C186.259 217.789 186.452 217.655 186.584 217.484C186.716 217.313 186.782 217.118 186.782 216.898ZM190.383 215.125V214.957C190.383 214.386 190.466 213.856 190.632 213.368C190.798 212.875 191.037 212.447 191.349 212.086C191.662 211.72 192.04 211.437 192.485 211.236C192.929 211.031 193.427 210.929 193.979 210.929C194.535 210.929 195.036 211.031 195.48 211.236C195.929 211.437 196.31 211.72 196.623 212.086C196.94 212.447 197.182 212.875 197.348 213.368C197.514 213.856 197.597 214.386 197.597 214.957V215.125C197.597 215.697 197.514 216.227 197.348 216.715C197.182 217.203 196.94 217.63 196.623 217.997C196.31 218.358 195.932 218.641 195.488 218.846C195.048 219.046 194.55 219.146 193.993 219.146C193.437 219.146 192.936 219.046 192.492 218.846C192.048 218.641 191.667 218.358 191.349 217.997C191.037 217.63 190.798 217.203 190.632 216.715C190.466 216.227 190.383 215.697 190.383 215.125ZM191.738 214.957V215.125C191.738 215.521 191.784 215.895 191.877 216.246C191.97 216.593 192.109 216.9 192.294 217.169C192.485 217.438 192.721 217.65 193.005 217.806C193.288 217.958 193.617 218.033 193.993 218.033C194.365 218.033 194.689 217.958 194.968 217.806C195.251 217.65 195.485 217.438 195.671 217.169C195.856 216.9 195.995 216.593 196.088 216.246C196.186 215.895 196.235 215.521 196.235 215.125V214.957C196.235 214.566 196.186 214.198 196.088 213.851C195.995 213.5 195.854 213.189 195.663 212.921C195.478 212.647 195.243 212.433 194.96 212.276C194.682 212.12 194.355 212.042 193.979 212.042C193.608 212.042 193.281 212.12 192.997 212.276C192.719 212.433 192.485 212.647 192.294 212.921C192.109 213.189 191.97 213.5 191.877 213.851C191.784 214.198 191.738 214.566 191.738 214.957ZM201.476 212.767V219H200.121V211.075H201.403L201.476 212.767ZM201.154 214.737L200.59 214.715C200.595 214.173 200.675 213.673 200.832 213.214C200.988 212.75 201.208 212.347 201.491 212.005C201.774 211.664 202.111 211.4 202.502 211.214C202.897 211.024 203.334 210.929 203.813 210.929C204.203 210.929 204.555 210.982 204.867 211.09C205.18 211.192 205.446 211.358 205.666 211.588C205.89 211.817 206.061 212.115 206.178 212.481C206.296 212.843 206.354 213.285 206.354 213.807V219H204.992V213.792C204.992 213.377 204.931 213.045 204.809 212.796C204.687 212.542 204.508 212.359 204.274 212.247C204.04 212.13 203.752 212.071 203.41 212.071C203.073 212.071 202.765 212.142 202.487 212.284C202.213 212.425 201.977 212.621 201.776 212.87C201.581 213.119 201.427 213.404 201.315 213.727C201.208 214.044 201.154 214.381 201.154 214.737Z" fill="white"/>
<path d="M284.581 212.818V214.444C284.581 215.318 284.502 216.056 284.346 216.656C284.19 217.257 283.965 217.74 283.672 218.106C283.379 218.473 283.025 218.739 282.61 218.905C282.2 219.066 281.736 219.146 281.219 219.146C280.809 219.146 280.43 219.095 280.083 218.993C279.737 218.89 279.424 218.727 279.146 218.502C278.873 218.272 278.638 217.975 278.443 217.608C278.248 217.242 278.099 216.798 277.996 216.275C277.894 215.753 277.842 215.143 277.842 214.444V212.818C277.842 211.944 277.92 211.212 278.077 210.621C278.238 210.03 278.465 209.557 278.758 209.2C279.051 208.839 279.402 208.58 279.812 208.424C280.228 208.268 280.691 208.189 281.204 208.189C281.619 208.189 282 208.241 282.347 208.343C282.698 208.441 283.011 208.6 283.284 208.819C283.558 209.034 283.79 209.322 283.98 209.684C284.175 210.04 284.324 210.477 284.427 210.995C284.529 211.512 284.581 212.12 284.581 212.818ZM283.218 214.664V212.591C283.218 212.113 283.189 211.693 283.13 211.332C283.077 210.965 282.996 210.653 282.889 210.394C282.781 210.135 282.645 209.925 282.479 209.764C282.317 209.603 282.129 209.486 281.915 209.413C281.705 209.334 281.468 209.295 281.204 209.295C280.882 209.295 280.596 209.356 280.347 209.479C280.098 209.596 279.888 209.784 279.717 210.042C279.551 210.301 279.424 210.641 279.336 211.061C279.249 211.48 279.205 211.991 279.205 212.591V214.664C279.205 215.143 279.231 215.565 279.285 215.931C279.344 216.297 279.429 216.615 279.542 216.883C279.654 217.147 279.791 217.364 279.952 217.535C280.113 217.706 280.298 217.833 280.508 217.916C280.723 217.994 280.96 218.033 281.219 218.033C281.551 218.033 281.841 217.97 282.09 217.843C282.339 217.716 282.547 217.518 282.713 217.25C282.884 216.976 283.011 216.627 283.094 216.202C283.177 215.772 283.218 215.26 283.218 214.664ZM291.602 208.277V219H290.247V209.969L287.515 210.965V209.742L291.389 208.277H291.602ZM301.275 208.336L296.829 219.916H295.664L300.117 208.336H301.275ZM310.42 217.887V219H303.44V218.026L306.933 214.137C307.363 213.658 307.695 213.253 307.93 212.921C308.169 212.584 308.335 212.284 308.428 212.02C308.525 211.751 308.574 211.478 308.574 211.2C308.574 210.848 308.501 210.531 308.354 210.248C308.213 209.959 308.003 209.73 307.725 209.559C307.446 209.388 307.109 209.303 306.714 209.303C306.24 209.303 305.845 209.396 305.527 209.581C305.215 209.762 304.98 210.016 304.824 210.343C304.668 210.67 304.59 211.046 304.59 211.471H303.235C303.235 210.87 303.367 210.321 303.63 209.823C303.894 209.325 304.285 208.929 304.802 208.636C305.32 208.338 305.957 208.189 306.714 208.189C307.388 208.189 307.964 208.309 308.442 208.548C308.921 208.783 309.287 209.115 309.541 209.544C309.8 209.969 309.929 210.467 309.929 211.039C309.929 211.351 309.875 211.668 309.768 211.991C309.665 212.308 309.521 212.625 309.336 212.943C309.155 213.26 308.943 213.573 308.699 213.88C308.459 214.188 308.203 214.491 307.93 214.789L305.073 217.887H310.42ZM317.148 208.277V219H315.793V209.969L313.061 210.965V209.742L316.936 208.277H317.148Z" fill="white"/>
<path d="M57.2339 188.865H57.373C58.1543 188.865 58.7891 188.755 59.2773 188.535C59.7656 188.315 60.1416 188.02 60.4053 187.649C60.6689 187.278 60.8496 186.86 60.9473 186.396C61.0449 185.928 61.0938 185.447 61.0938 184.954V183.32C61.0938 182.837 61.0376 182.407 60.9253 182.031C60.8179 181.655 60.6665 181.34 60.4712 181.086C60.2808 180.833 60.0635 180.64 59.8193 180.508C59.5752 180.376 59.3164 180.31 59.043 180.31C58.7305 180.31 58.4497 180.374 58.2007 180.5C57.9565 180.623 57.749 180.796 57.5781 181.021C57.4121 181.245 57.2852 181.509 57.1973 181.812C57.1094 182.114 57.0654 182.444 57.0654 182.8C57.0654 183.118 57.1045 183.425 57.1826 183.723C57.2607 184.021 57.3804 184.29 57.5415 184.529C57.7026 184.768 57.9028 184.958 58.1421 185.1C58.3862 185.237 58.6719 185.305 58.999 185.305C59.3018 185.305 59.585 185.247 59.8486 185.129C60.1172 185.007 60.354 184.844 60.5591 184.639C60.769 184.429 60.9351 184.192 61.0571 183.928C61.1841 183.665 61.2573 183.389 61.2769 183.101H61.9214C61.9214 183.506 61.8408 183.906 61.6797 184.302C61.5234 184.692 61.3037 185.049 61.0205 185.371C60.7373 185.693 60.4053 185.952 60.0244 186.147C59.6436 186.338 59.2285 186.433 58.7793 186.433C58.252 186.433 57.7954 186.331 57.4097 186.125C57.0239 185.92 56.7065 185.647 56.4575 185.305C56.2134 184.963 56.0303 184.583 55.9082 184.163C55.791 183.738 55.7324 183.308 55.7324 182.874C55.7324 182.366 55.8032 181.89 55.9448 181.445C56.0864 181.001 56.2964 180.61 56.5747 180.273C56.853 179.932 57.1973 179.666 57.6074 179.475C58.0225 179.285 58.501 179.189 59.043 179.189C59.6533 179.189 60.1733 179.312 60.603 179.556C61.0327 179.8 61.3818 180.127 61.6504 180.537C61.9238 180.947 62.124 181.409 62.251 181.921C62.3779 182.434 62.4414 182.961 62.4414 183.503V183.994C62.4414 184.546 62.4048 185.107 62.3315 185.679C62.2632 186.245 62.1289 186.787 61.9287 187.305C61.7334 187.822 61.4478 188.286 61.0718 188.696C60.6958 189.102 60.2051 189.424 59.5996 189.663C58.999 189.897 58.2568 190.015 57.373 190.015H57.2339V188.865ZM77.0989 179.321H77.2161V180.471H77.0989C76.3812 180.471 75.7806 180.588 75.2972 180.823C74.8138 181.052 74.4305 181.362 74.1473 181.753C73.8641 182.139 73.659 182.573 73.532 183.057C73.41 183.54 73.3489 184.031 73.3489 184.529V186.096C73.3489 186.57 73.4051 186.99 73.5174 187.356C73.6297 187.717 73.7835 188.022 73.9788 188.271C74.1741 188.521 74.3938 188.708 74.638 188.835C74.887 188.962 75.1458 189.026 75.4144 189.026C75.7269 189.026 76.0052 188.967 76.2493 188.85C76.4935 188.728 76.6985 188.56 76.8646 188.345C77.0354 188.125 77.1648 187.866 77.2527 187.568C77.3406 187.271 77.3846 186.943 77.3846 186.587C77.3846 186.27 77.3455 185.964 77.2674 185.671C77.1893 185.374 77.0696 185.11 76.9085 184.88C76.7474 184.646 76.5447 184.463 76.3006 184.331C76.0613 184.194 75.7757 184.126 75.4437 184.126C75.0677 184.126 74.7161 184.219 74.389 184.404C74.0667 184.585 73.8006 184.824 73.5906 185.122C73.3855 185.415 73.2684 185.735 73.2391 186.082L72.5213 186.074C72.5896 185.527 72.7166 185.061 72.9021 184.675C73.0926 184.285 73.327 183.967 73.6053 183.723C73.8885 183.474 74.2034 183.293 74.5501 183.181C74.9017 183.064 75.2728 183.005 75.6634 183.005C76.1956 183.005 76.6546 183.105 77.0403 183.306C77.4261 183.506 77.7435 183.774 77.9925 184.111C78.2415 184.443 78.4246 184.819 78.5418 185.239C78.6639 185.654 78.7249 186.082 78.7249 186.521C78.7249 187.024 78.6541 187.495 78.5125 187.935C78.3709 188.374 78.1585 188.76 77.8753 189.092C77.597 189.424 77.2527 189.683 76.8426 189.868C76.4324 190.054 75.9563 190.146 75.4144 190.146C74.8382 190.146 74.3353 190.029 73.9056 189.795C73.4759 189.556 73.1194 189.238 72.8362 188.843C72.553 188.447 72.3406 188.008 72.199 187.524C72.0574 187.041 71.9866 186.55 71.9866 186.052V185.415C71.9866 184.663 72.0623 183.926 72.2137 183.203C72.365 182.48 72.6263 181.826 72.9974 181.24C73.3733 180.654 73.8934 180.188 74.5574 179.841C75.2215 179.495 76.0687 179.321 77.0989 179.321ZM94.8033 179.336V180.098L90.3868 190H88.9586L93.3678 180.449H87.5963V179.336H94.8033ZM111.131 186.411V187.524H103.426V186.726L108.201 179.336H109.307L108.121 181.475L104.964 186.411H111.131ZM109.644 179.336V190H108.289V179.336H109.644ZM137.926 183.818V185.444C137.926 186.318 137.848 187.056 137.692 187.656C137.536 188.257 137.311 188.74 137.018 189.106C136.725 189.473 136.371 189.739 135.956 189.905C135.546 190.066 135.082 190.146 134.564 190.146C134.154 190.146 133.776 190.095 133.429 189.993C133.083 189.89 132.77 189.727 132.492 189.502C132.218 189.272 131.984 188.975 131.789 188.608C131.593 188.242 131.444 187.798 131.342 187.275C131.239 186.753 131.188 186.143 131.188 185.444V183.818C131.188 182.944 131.266 182.212 131.422 181.621C131.583 181.03 131.811 180.557 132.104 180.2C132.396 179.839 132.748 179.58 133.158 179.424C133.573 179.268 134.037 179.189 134.55 179.189C134.965 179.189 135.346 179.241 135.692 179.343C136.044 179.441 136.356 179.6 136.63 179.819C136.903 180.034 137.135 180.322 137.326 180.684C137.521 181.04 137.67 181.477 137.772 181.995C137.875 182.512 137.926 183.12 137.926 183.818ZM136.564 185.664V183.591C136.564 183.113 136.535 182.693 136.476 182.332C136.422 181.965 136.342 181.653 136.234 181.394C136.127 181.135 135.99 180.925 135.824 180.764C135.663 180.603 135.475 180.486 135.26 180.413C135.05 180.334 134.813 180.295 134.55 180.295C134.228 180.295 133.942 180.356 133.693 180.479C133.444 180.596 133.234 180.784 133.063 181.042C132.897 181.301 132.77 181.641 132.682 182.061C132.594 182.48 132.55 182.991 132.55 183.591V185.664C132.55 186.143 132.577 186.565 132.631 186.931C132.689 187.297 132.775 187.615 132.887 187.883C133 188.147 133.136 188.364 133.297 188.535C133.458 188.706 133.644 188.833 133.854 188.916C134.069 188.994 134.306 189.033 134.564 189.033C134.896 189.033 135.187 188.97 135.436 188.843C135.685 188.716 135.893 188.518 136.059 188.25C136.229 187.976 136.356 187.627 136.439 187.202C136.522 186.772 136.564 186.26 136.564 185.664ZM154.232 188.887V190H147.252V189.026L150.745 185.137C151.175 184.658 151.507 184.253 151.742 183.921C151.981 183.584 152.147 183.284 152.24 183.02C152.337 182.751 152.386 182.478 152.386 182.2C152.386 181.848 152.313 181.531 152.166 181.248C152.025 180.959 151.815 180.73 151.536 180.559C151.258 180.388 150.921 180.303 150.526 180.303C150.052 180.303 149.657 180.396 149.339 180.581C149.027 180.762 148.792 181.016 148.636 181.343C148.48 181.67 148.402 182.046 148.402 182.471H147.047C147.047 181.87 147.179 181.321 147.442 180.823C147.706 180.325 148.096 179.929 148.614 179.636C149.132 179.338 149.769 179.189 150.526 179.189C151.2 179.189 151.776 179.309 152.254 179.548C152.733 179.783 153.099 180.115 153.353 180.544C153.612 180.969 153.741 181.467 153.741 182.039C153.741 182.351 153.687 182.668 153.58 182.991C153.477 183.308 153.333 183.625 153.148 183.943C152.967 184.26 152.755 184.573 152.511 184.88C152.271 185.188 152.015 185.491 151.742 185.789L148.885 188.887H154.232ZM168.457 179.321H168.574V180.471H168.457C167.739 180.471 167.139 180.588 166.655 180.823C166.172 181.052 165.789 181.362 165.505 181.753C165.222 182.139 165.017 182.573 164.89 183.057C164.768 183.54 164.707 184.031 164.707 184.529V186.096C164.707 186.57 164.763 186.99 164.876 187.356C164.988 187.717 165.142 188.022 165.337 188.271C165.532 188.521 165.752 188.708 165.996 188.835C166.245 188.962 166.504 189.026 166.773 189.026C167.085 189.026 167.363 188.967 167.608 188.85C167.852 188.728 168.057 188.56 168.223 188.345C168.394 188.125 168.523 187.866 168.611 187.568C168.699 187.271 168.743 186.943 168.743 186.587C168.743 186.27 168.704 185.964 168.626 185.671C168.547 185.374 168.428 185.11 168.267 184.88C168.106 184.646 167.903 184.463 167.659 184.331C167.42 184.194 167.134 184.126 166.802 184.126C166.426 184.126 166.074 184.219 165.747 184.404C165.425 184.585 165.159 184.824 164.949 185.122C164.744 185.415 164.627 185.735 164.597 186.082L163.879 186.074C163.948 185.527 164.075 185.061 164.26 184.675C164.451 184.285 164.685 183.967 164.963 183.723C165.247 183.474 165.562 183.293 165.908 183.181C166.26 183.064 166.631 183.005 167.022 183.005C167.554 183.005 168.013 183.105 168.399 183.306C168.784 183.506 169.102 183.774 169.351 184.111C169.6 184.443 169.783 184.819 169.9 185.239C170.022 185.654 170.083 186.082 170.083 186.521C170.083 187.024 170.012 187.495 169.871 187.935C169.729 188.374 169.517 188.76 169.233 189.092C168.955 189.424 168.611 189.683 168.201 189.868C167.791 190.054 167.315 190.146 166.773 190.146C166.196 190.146 165.693 190.029 165.264 189.795C164.834 189.556 164.478 189.238 164.194 188.843C163.911 188.447 163.699 188.008 163.557 187.524C163.416 187.041 163.345 186.55 163.345 186.052V185.415C163.345 184.663 163.421 183.926 163.572 183.203C163.723 182.48 163.984 181.826 164.356 181.24C164.732 180.654 165.252 180.188 165.916 179.841C166.58 179.495 167.427 179.321 168.457 179.321ZM186.162 179.336V180.098L181.745 190H180.317L184.726 180.449H178.954V179.336H186.162ZM207.925 188.865H208.064C208.846 188.865 209.48 188.755 209.969 188.535C210.457 188.315 210.833 188.02 211.097 187.649C211.36 187.278 211.541 186.86 211.639 186.396C211.736 185.928 211.785 185.447 211.785 184.954V183.32C211.785 182.837 211.729 182.407 211.617 182.031C211.509 181.655 211.358 181.34 211.163 181.086C210.972 180.833 210.755 180.64 210.511 180.508C210.267 180.376 210.008 180.31 209.734 180.31C209.422 180.31 209.141 180.374 208.892 180.5C208.648 180.623 208.44 180.796 208.27 181.021C208.104 181.245 207.977 181.509 207.889 181.812C207.801 182.114 207.757 182.444 207.757 182.8C207.757 183.118 207.796 183.425 207.874 183.723C207.952 184.021 208.072 184.29 208.233 184.529C208.394 184.768 208.594 184.958 208.833 185.1C209.078 185.237 209.363 185.305 209.69 185.305C209.993 185.305 210.276 185.247 210.54 185.129C210.809 185.007 211.045 184.844 211.25 184.639C211.46 184.429 211.626 184.192 211.749 183.928C211.875 183.665 211.949 183.389 211.968 183.101H212.613C212.613 183.506 212.532 183.906 212.371 184.302C212.215 184.692 211.995 185.049 211.712 185.371C211.429 185.693 211.097 185.952 210.716 186.147C210.335 186.338 209.92 186.433 209.471 186.433C208.943 186.433 208.487 186.331 208.101 186.125C207.715 185.92 207.398 185.647 207.149 185.305C206.905 184.963 206.722 184.583 206.6 184.163C206.482 183.738 206.424 183.308 206.424 182.874C206.424 182.366 206.495 181.89 206.636 181.445C206.778 181.001 206.988 180.61 207.266 180.273C207.544 179.932 207.889 179.666 208.299 179.475C208.714 179.285 209.192 179.189 209.734 179.189C210.345 179.189 210.865 179.312 211.294 179.556C211.724 179.8 212.073 180.127 212.342 180.537C212.615 180.947 212.815 181.409 212.942 181.921C213.069 182.434 213.133 182.961 213.133 183.503V183.994C213.133 184.546 213.096 185.107 213.023 185.679C212.955 186.245 212.82 186.787 212.62 187.305C212.425 187.822 212.139 188.286 211.763 188.696C211.387 189.102 210.896 189.424 210.291 189.663C209.69 189.897 208.948 190.015 208.064 190.015H207.925V188.865ZM229.482 179.336V180.098L225.066 190H223.637L228.047 180.449H222.275V179.336H229.482ZM240.316 184.924L239.233 184.646L239.767 179.336H245.238V180.588H240.917L240.595 183.489C240.79 183.376 241.037 183.271 241.335 183.174C241.637 183.076 241.984 183.027 242.375 183.027C242.868 183.027 243.31 183.113 243.7 183.284C244.091 183.45 244.423 183.689 244.696 184.001C244.975 184.314 245.187 184.69 245.334 185.129C245.48 185.569 245.553 186.06 245.553 186.602C245.553 187.114 245.483 187.585 245.341 188.015C245.204 188.445 244.997 188.821 244.718 189.143C244.44 189.46 244.088 189.707 243.664 189.883C243.244 190.059 242.748 190.146 242.177 190.146C241.747 190.146 241.339 190.088 240.954 189.971C240.573 189.849 240.231 189.666 239.928 189.421C239.63 189.172 239.386 188.865 239.196 188.499C239.01 188.127 238.893 187.693 238.844 187.195H240.133C240.192 187.595 240.309 187.932 240.485 188.206C240.661 188.479 240.89 188.687 241.173 188.828C241.462 188.965 241.796 189.033 242.177 189.033C242.499 189.033 242.785 188.977 243.034 188.865C243.283 188.752 243.493 188.591 243.664 188.381C243.835 188.171 243.964 187.917 244.052 187.62C244.145 187.322 244.191 186.987 244.191 186.616C244.191 186.279 244.145 185.967 244.052 185.679C243.959 185.391 243.82 185.139 243.634 184.924C243.454 184.709 243.232 184.543 242.968 184.426C242.704 184.304 242.401 184.243 242.06 184.243C241.606 184.243 241.261 184.304 241.027 184.426C240.797 184.548 240.561 184.714 240.316 184.924ZM261.339 187.114C261.339 187.764 261.187 188.315 260.885 188.77C260.587 189.219 260.182 189.561 259.669 189.795C259.161 190.029 258.587 190.146 257.948 190.146C257.308 190.146 256.732 190.029 256.219 189.795C255.706 189.561 255.301 189.219 255.003 188.77C254.705 188.315 254.557 187.764 254.557 187.114C254.557 186.689 254.637 186.301 254.798 185.95C254.964 185.593 255.196 185.283 255.494 185.02C255.797 184.756 256.153 184.553 256.563 184.412C256.978 184.265 257.435 184.192 257.933 184.192C258.587 184.192 259.171 184.319 259.683 184.573C260.196 184.822 260.599 185.166 260.892 185.605C261.19 186.045 261.339 186.548 261.339 187.114ZM259.976 187.085C259.976 186.689 259.891 186.34 259.72 186.038C259.549 185.73 259.31 185.491 259.002 185.32C258.695 185.149 258.338 185.063 257.933 185.063C257.518 185.063 257.159 185.149 256.856 185.32C256.558 185.491 256.327 185.73 256.161 186.038C255.995 186.34 255.912 186.689 255.912 187.085C255.912 187.495 255.992 187.847 256.153 188.14C256.319 188.428 256.554 188.65 256.856 188.806C257.164 188.958 257.528 189.033 257.948 189.033C258.368 189.033 258.729 188.958 259.032 188.806C259.334 188.65 259.566 188.428 259.727 188.14C259.893 187.847 259.976 187.495 259.976 187.085ZM261.09 182.112C261.09 182.629 260.953 183.096 260.68 183.511C260.406 183.926 260.033 184.253 259.559 184.492C259.085 184.731 258.548 184.851 257.948 184.851C257.337 184.851 256.793 184.731 256.314 184.492C255.841 184.253 255.47 183.926 255.201 183.511C254.933 183.096 254.798 182.629 254.798 182.112C254.798 181.492 254.933 180.964 255.201 180.53C255.475 180.095 255.848 179.763 256.322 179.534C256.795 179.304 257.335 179.189 257.94 179.189C258.551 179.189 259.093 179.304 259.566 179.534C260.04 179.763 260.411 180.095 260.68 180.53C260.953 180.964 261.09 181.492 261.09 182.112ZM259.735 182.134C259.735 181.777 259.659 181.462 259.508 181.189C259.356 180.916 259.146 180.701 258.878 180.544C258.609 180.383 258.297 180.303 257.94 180.303C257.584 180.303 257.271 180.378 257.003 180.53C256.739 180.676 256.532 180.886 256.38 181.16C256.234 181.433 256.161 181.758 256.161 182.134C256.161 182.5 256.234 182.82 256.38 183.093C256.532 183.367 256.742 183.579 257.01 183.73C257.279 183.882 257.591 183.958 257.948 183.958C258.304 183.958 258.614 183.882 258.878 183.73C259.146 183.579 259.356 183.367 259.508 183.093C259.659 182.82 259.735 182.5 259.735 182.134Z" fill="white"/>
<circle cx="296.5" cy="66.5" r="12.5" fill="white" fill-opacity="0.5"/>
<circle cx="309.305" cy="66.5" r="12.5" fill="white" fill-opacity="0.5"/>
<circle cx="296.5" cy="66.5" r="12.5" fill="white" fill-opacity="0.5"/>
<circle cx="309.305" cy="66.5" r="12.5" fill="white" fill-opacity="0.5"/>
<rect x="24" y="23" width="328.805" height="231" rx="17" stroke="url(#paint1_linear_36_951)" stroke-width="2"/>
</g>
<defs>
<filter id="filter0_bd_36_951" x="-31" y="-32" width="438.805" height="341" filterUnits="userSpaceOnUse" color-interpolation-filters="sRGB">
<feFlood flood-opacity="0" result="BackgroundImageFix"/>
<feGaussianBlur in="BackgroundImage" stdDeviation="27"/>
<feComposite in2="SourceAlpha" operator="in" result="effect1_backgroundBlur_36_951"/>
<feColorMatrix in="SourceAlpha" type="matrix" values="0 0 0 0 0 0 0 0 0 0 0 0 0 0 0 0 0 0 127 0" result="hardAlpha"/>
<feMorphology radius="1" operator="erode" in="SourceAlpha" result="effect2_dropShadow_36_951"/>
<feOffset dy="1"/>
<feGaussianBlur stdDeviation="12"/>
<feColorMatrix type="matrix" values="0 0 0 0 0 0 0 0 0 0 0 0 0 0 0 0 0 0 0.1 0"/>
<feBlend mode="normal" in2="effect1_backgroundBlur_36_951" result="effect2_dropShadow_36_951"/>
<feBlend mode="normal" in="SourceGraphic" in2="effect2_dropShadow_36_951" result="shape"/>
</filter>
<linearGradient id="paint0_linear_36_951" x1="180.815" y1="243.621" x2="35.2717" y2="38.2717" gradientUnits="userSpaceOnUse">
<stop stop-color="white" stop-opacity="0.1"/>
<stop offset="1" stop-color="white" stop-opacity="0.4"/>
</linearGradient>
<linearGradient id="paint1_linear_36_951" x1="47.9853" y1="57" x2="328.981" y2="274.507" gradientUnits="userSpaceOnUse">
<stop stop-color="#296BFF"/>
<stop offset="0.378569" stop-color="white" stop-opacity="0"/>
<stop offset="0.546212" stop-color="white" stop-opacity="0"/>
<stop offset="1" stop-color="#296BFF"/>
</linearGradient>
</defs>
</svg>
